# xmcd
#
# Track frame offsets: 
#        150
#        18064
#        35398
#        49045
#        63841
#        79350
#        98604
#        115917
#        132377
#        148199
#        163907
#        178957
#        195947
#
# Disc length: 2865 seconds
#
# Revision: 2
# Processed by: cddbd v1.5.2PL0 Copyright (c) Steve Scherf et al.
# Submitted via: ExactAudioCopy v0.99pb5
#
DISCID=ad0b2f0d
DTITLE=The Crabb Family - Driven
DYEAR=2004
DGENRE=Gospel
TTITLE0=Promised Land
TTITLE1=The Shepherd's Call
TTITLE2=Sacrifice Of Praise
TTITLE3=My Keeper
TTITLE4=Good Day
TTITLE5=Forever
TTITLE6=Walk Away
TTITLE7=Rahab
TTITLE8=You Can't Imagine
TTITLE9=Chapter 2
TTITLE10=A Soldier On His Knees
TTITLE11=He Came Looking For Me
TTITLE12=Through The Fire
EXTD=YEAR: 2004
EXTT0=
EXTT1=
EXTT2=
EXTT3=
EXTT4=
EXTT5=
EXTT6=
EXTT7=
EXTT8=
EXTT9=
EXTT10=
EXTT11=
EXTT12=
PLAYORDER=
